<svg xmlns="http://www.w3.org/2000/svg" viewBox="0 0 75.13 39.44"><g id="Isolation_Mode" data-name="Isolation Mode"><path d="M66.73,33.41c0-5.44-3.92-9.85-8.75-9.85S49.23,28,49.23,33.41a11,11,0,0,0,.09,1.42.65.65,0,0,1-.65.72H26.3a.64.64,0,0,1-.65-.72,11,11,0,0,0,.09-1.42c0-5.44-3.92-9.85-8.75-9.85S8.24,28,8.24,33.41a11.05,11.05,0,0,0,.18,2,7,7,0,0,1-2-4.89,22.07,22.07,0,0,1,2.19-9.82,5.09,5.09,0,0,1,4.54-2.79h2.21C20.29,6.17,25.18,6.17,34,6.17c6.61,0,9.36,1.1,10.33,1.65A12.56,12.56,0,0,0,46,8.59c10.82,4.06,16.92,10,20.12,14.14A15.37,15.37,0,0,1,69.24,32v1.53c0,2-1.6,2-1.6,2H66.52A11.12,11.12,0,0,0,66.73,33.41Z" fill="#fff"/><path d="M44.05,16.3H41.3a5.09,5.09,0,0,0-2.14.47l-2.17,1a4.4,4.4,0,0,1-1.89.4L24.69,18a.73.73,0,0,1-.72-.74h0A9,9,0,0,1,30.2,8.59a14.2,14.2,0,0,1,4-.62c7.24-.12,10.41,2.18,11.38,6.38A1.59,1.59,0,0,1,44.05,16.3Z" fill="#3b628b"/><circle cx="57.97" cy="32.41" r="7.03" fill="#1c2b58"/><circle cx="57.97" cy="32.41" r="0.85" fill="#376187"/><path d="M53.34,32.41A4.63,4.63,0,1,0,58,27.78,4.63,4.63,0,0,0,53.34,32.41Zm.55,0A4.08,4.08,0,1,1,58,36.49,4.08,4.08,0,0,1,53.89,32.41Z" fill="#376187"/><path d="M50.94,32.41a7,7,0,1,0,7-7A7,7,0,0,0,50.94,32.41Zm1.79,0A5.24,5.24,0,1,1,58,37.65,5.24,5.24,0,0,1,52.73,32.41Z" fill="#376187"/><path d="M57.42,36.45a4.91,4.91,0,0,0,.55,0,4.41,4.41,0,0,0,.52,0,1.95,1.95,0,0,1,3.15-2.26,4.1,4.1,0,0,0,.32-.91,1.95,1.95,0,0,1-1.12-3.72h0a4.09,4.09,0,0,0-.91-.7,1.94,1.94,0,0,1-3.88,0v-.06a3.91,3.91,0,0,0-1.06.79h0A1.94,1.94,0,0,1,54,33.3a4.35,4.35,0,0,0,.3.88,1.94,1.94,0,0,1,3.13,2.27ZM56.57,33a.29.29,0,1,1-.29-.29A.29.29,0,0,1,56.57,33Zm.67-2a.29.29,0,1,1-.29-.29A.29.29,0,0,1,57.24,31ZM59.37,33a.29.29,0,1,1,.29.29A.29.29,0,0,1,59.37,33Zm0-2.06a.29.29,0,1,1-.29-.29A.29.29,0,0,1,59.32,31ZM58,33.68a1.27,1.27,0,1,1,1.27-1.27A1.27,1.27,0,0,1,58,33.68Zm-.29.57a.29.29,0,1,1,.29.29A.29.29,0,0,1,57.68,34.25Z" fill="#376187"/><circle cx="17.08" cy="32.41" r="7.03" transform="translate(-17.65 44.08) rotate(-80.78)" fill="#1c2b58"/><circle cx="17.08" cy="32.41" r="0.85" fill="#376187"/><path d="M12.45,32.41a4.63,4.63,0,1,0,4.63-4.63A4.63,4.63,0,0,0,12.45,32.41Zm.55,0a4.08,4.08,0,1,1,4.08,4.08A4.08,4.08,0,0,1,13,32.41Z" fill="#376187"/><path d="M10.05,32.41a7,7,0,1,0,7-7A7,7,0,0,0,10.05,32.41Zm1.79,0a5.24,5.24,0,1,1,5.24,5.24A5.24,5.24,0,0,1,11.84,32.41Z" fill="#376187"/><path d="M16.53,36.45a4.91,4.91,0,0,0,.55,0,4.41,4.41,0,0,0,.52,0,1.95,1.95,0,0,1,3.15-2.26,4.1,4.1,0,0,0,.32-.91A1.95,1.95,0,0,1,20,29.57H20a4.09,4.09,0,0,0-.91-.7,1.94,1.94,0,0,1-3.88,0v-.06a3.91,3.91,0,0,0-1.06.79h0A1.94,1.94,0,0,1,13.1,33.3a4.35,4.35,0,0,0,.3.88,1.94,1.94,0,0,1,3.13,2.27ZM15.68,33a.29.29,0,1,1-.29-.29A.29.29,0,0,1,15.68,33Zm.67-2a.29.29,0,1,1-.29-.29A.29.29,0,0,1,16.35,31ZM18.47,33a.29.29,0,1,1,.29.29A.3.3,0,0,1,18.47,33Zm0-2.06a.29.29,0,1,1-.29-.29A.29.29,0,0,1,18.43,31Zm-1.35,2.7a1.27,1.27,0,1,1,1.27-1.27A1.27,1.27,0,0,1,17.08,33.68Zm-.29.57a.29.29,0,1,1,.29.29A.29.29,0,0,1,16.79,34.25Z" fill="#376187"/><path d="M63.2,19.34H56.57A3.33,3.33,0,0,1,54,16.93s-.26-1-1.1-1a14.25,14.25,0,0,0-1.72,0,1.43,1.43,0,0,1-.84,1.16c-.78.31-2.06-1.06-2-3.19.08-1.86,1.6-1.54,2.06-.14a1,1,0,0,0,1,.67H52A9.52,9.52,0,0,0,48,9.91c-.68-.41-.13-.6,0-.56C50.35,10.21,58.55,13.78,63.2,19.34Z" fill="#ccebf9"/><path d="M60.3,16.48H57.14s-.65-1.22-3.77-3.57C51.74,11.69,51,11.33,48,9.35A42.1,42.1,0,0,1,60.3,16.48Z" fill="#376187"/><path d="M15.39,17.93H13.18a5.06,5.06,0,0,0-1.78.33h0C16.29,9.87,22.61,8,22.61,8h0C19.94,9.55,17.67,12.47,15.39,17.93Z" fill="#376187"/><g style="isolation:isolate"><path d="M50,13l.7,3.85a1.16,1.16,0,0,1-.36.22c-.78.31-2.06-1.06-2-3.19C48.42,12.43,49.35,12.31,50,13Z" fill="#376187" opacity="0.61" style="isolation:isolate"/></g><path d="M47.89,18.87a1.18,1.18,0,0,0,2,.12c1.16-1.28,3.22-.87,3.66,0s.59,1.94-1.94,2.72-3.46,4.34-3.48,5.09S47.89,18.87,47.89,18.87Z" fill="#ccebf9"/><path d="M48,25.42A6.9,6.9,0,0,1,47,29.9a5.54,5.54,0,0,1-4.46,2.51c-2,.12-3.6.18-4.85.21a13,13,0,0,1-9.28-3.47,16.11,16.11,0,0,1-2.86-3.66,10.05,10.05,0,0,0-4.66-4.32,8.81,8.81,0,0,0-3.24-.73c-4-.11-6.77,0-9.11,1.93a.21.21,0,0,1-.33-.25A7.79,7.79,0,0,1,9.6,20a3.09,3.09,0,0,1,2.23-1h9A2,2,0,0,0,23,17.19c.12-2,1-10.25,10.16-10.31,8.15-.06,11.48.84,13.37,7.11a23.49,23.49,0,0,1,.83,4.25C47.5,19.63,47.74,21.94,48,25.42Z" fill="none" stroke="#ccebf9" stroke-miterlimit="10"/><path d="M36.42,4.75a2.55,2.55,0,0,0-2.69-1.91A2.62,2.62,0,0,0,31,4.75" fill="none" stroke="#376187" stroke-linecap="round" stroke-miterlimit="10"/><path d="M38.64,3.16S38,.5,33.89.5s-4.81,2.66-4.81,2.66" fill="none" stroke="#376187" stroke-linecap="round" stroke-miterlimit="10"/><path d="M70.38,30.78a2.55,2.55,0,0,0,1.91-2.69,2.6,2.6,0,0,0-1.91-2.72" fill="none" stroke="#376187" stroke-linecap="round" stroke-miterlimit="10"/><path d="M72,33s2.66-.66,2.66-4.75S72,23.44,72,23.44" fill="none" stroke="#376187" stroke-linecap="round" stroke-miterlimit="10"/><path d="M4.75,31.44a2.55,2.55,0,0,1-1.91-2.69A2.6,2.6,0,0,1,4.75,26" fill="none" stroke="#376187" stroke-linecap="round" stroke-miterlimit="10"/><path d="M3.16,33.66S.5,33,.5,28.91,3.16,24.1,3.16,24.1" fill="none" stroke="#376187" stroke-linecap="round" stroke-miterlimit="10"/><path d="M24.26,15h3.06V12.4h0s0,0,0-.06a1.85,1.85,0,1,1,3.7,0s0,0,0,.06h0V15h14.6a1.59,1.59,0,0,1-1.56,1.33H41.31a5.09,5.09,0,0,0-2.14.47l-2.17,1a4.4,4.4,0,0,1-1.89.4L24.7,18a.73.73,0,0,1-.72-.74A9.6,9.6,0,0,1,24.26,15Z" fill="#cbebf4"/></g></svg>