<svg xmlns="http://www.w3.org/2000/svg" xmlns:xlink="http://www.w3.org/1999/xlink" viewBox="0 0 251.38 56.72"><defs><clipPath id="clip-path" transform="translate(-19.99 -16.89)"><rect width="193.66" height="70.53" fill="none"/></clipPath></defs><g id="Isolation_Mode" data-name="Isolation Mode"><g clip-path="url(#clip-path)"><g style="isolation:isolate"><path d="M27.76,63c-.1-.7-3-5.93-3.25-4.44a14.79,14.79,0,0,1,1.68,2.23h0l-1.81,1.81c.22-5.72-.66-5.73-.44,0l-1.83-1.83c5-6.91-3.78,2.24-1.8,6-.23.94,4,4.2,3.4,2.64a4.4,4.4,0,0,1-3.09-5l3.32,3.32c-.21,2.76.64,2.78.44,0l3.32-3.32a4.36,4.36,0,0,1-3.07,5c-.26.11-.15.54.12.43A4.94,4.94,0,0,0,27.76,63Zm-7,.9,0,0a11.32,11.32,0,0,1,1.14-2.68l2.06,2.06V67Zm6.8,0L24.36,67V63.21l2.06-2.06a11.53,11.53,0,0,1,1.15,2.68Z" transform="translate(-19.99 -16.89)" fill="#1e4c82"/><path d="M23.88,70.23c.15.52-.3,4.16.51,3.22C24.23,72.92,24.7,69.32,23.88,70.23Z" transform="translate(-19.99 -16.89)" fill="#1e4c82"/><path d="M83.09,30.06c-6.46.31-13.68-.61-19.77.33V68.8c.09.45-.27,1.32.33,1.45,6.54-.1,13.19.19,19.68-.1C83.28,57,84,42.9,83.09,30.06ZM70.22,69.59H64V30.73H82.75V69.59Z" transform="translate(-19.99 -16.89)" fill="#1e4c82"/><path d="M62.29,50.81c-6.46.32-13.68-.62-19.77.33.32,6.27-.61,13.32.33,19.23,6.54-.11,13.21.21,19.69-.11C62.47,64,63.18,56.76,62.29,50.81ZM49.42,69.71H43.18V51.48c6.26,0,19.24,0,18.77,0s-.21,10.13,0,12.64c.15,1.86,0,3.73,0,5.59Z" transform="translate(-19.99 -16.89)" fill="#1e4c82"/><path d="M99.6,17c-5,.31-10.84-.61-15.51.33V68.51c.12.55-.32,1.58.33,1.78,5-.32,10.87.62,15.52-.34C99.6,52.43,100.59,34.14,99.6,17ZM86.28,69.63H84.75v-52H99.26v52Z" transform="translate(-19.99 -16.89)" fill="#1e4c82"/><path d="M150.57,27.23c-3.74.3-8.26-.59-11.63.33V69.92c3.38.92,7.89,0,11.63.33a.34.34,0,0,0,.34-.34C150.57,55.82,151.56,41,150.57,27.23ZM139.61,45V27.89h10.63v41.7H139.61Z" transform="translate(-19.99 -16.89)" fill="#1e4c82"/><path d="M151,20.86c.15-.57-5.63-.54-5.48,0,.27,1.8-.54,4.4.33,5.83C152.92,26.82,150.66,27.27,151,20.86ZM150.33,26h-4.16V21.19h4.16Z" transform="translate(-19.99 -16.89)" fill="#1e4c82"/><path d="M36.49,28.35c-.37-.48-6.43-3.27-6.37-2.35.27,1.8-.54,4.4.33,5.83,2-.09,4,.18,5.95-.1A21,21,0,0,0,36.49,28.35Zm-.67,2.82H30.77V26.5l5.05,2.08Z" transform="translate(-19.99 -16.89)" fill="#1e4c82"/><path d="M41.55,32.62c-3.74.3-8.26-.59-11.63.33V69.8c0,.23.06.5.33.5,3.49-.31,8.67.61,11.64-.34C41.55,57.65,42.54,44.56,41.55,32.62Zm-11,37V33.3H41.22V69.64Z" transform="translate(-19.99 -16.89)" fill="#1e4c82"/><path d="M138.16,47.13H116.41c-5.09-2.77-10.21-5.45-15.31-8.2a.34.34,0,0,0-.5.29V69.91c12.09.87,25.38.18,37.78.24C138.38,62.69,139,54.28,138.16,47.13ZM102.9,69.59h-1.63V39.78l14.56,7.78v22Zm23,0h-9.36V47.81h21.31V69.59Z" transform="translate(-19.99 -16.89)" fill="#1e4c82"/><path d="M45.2,60.92c1.51-.36,16.41.83,14.55-.67C58.25,60.61,43.34,59.42,45.2,60.92Z" transform="translate(-19.99 -16.89)" fill="#1e4c82"/><path d="M32.41,60.92c.84-.24,8.83.65,7.12-.67C38.7,60.49,30.7,59.6,32.41,60.92Z" transform="translate(-19.99 -16.89)" fill="#1e4c82"/><path d="M47.68,58.69c-.19-.7.57-6.66-.67-5.08.19.7-.57,6.66.67,5.08Z" transform="translate(-19.99 -16.89)" fill="#1e4c82"/><path d="M52.66,58.69c-.19-.7.57-6.66-.67-5.08.19.7-.57,6.66.67,5.08Z" transform="translate(-19.99 -16.89)" fill="#1e4c82"/><path d="M57.64,58.69c-.19-.7.57-6.66-.67-5.08.19.7-.57,6.66.67,5.08Z" transform="translate(-19.99 -16.89)" fill="#1e4c82"/><path d="M33.52,67.58c-.19-.7.57-6.66-.67-5.08.19.7-.57,6.66.67,5.08Z" transform="translate(-19.99 -16.89)" fill="#1e4c82"/><path d="M36.08,67.58c-.19-.7.57-6.66-.67-5.08.19.7-.57,6.66.67,5.08Z" transform="translate(-19.99 -16.89)" fill="#1e4c82"/><path d="M38.64,67.58c-.19-.7.57-6.66-.67-5.08.19.7-.57,6.66.67,5.08Z" transform="translate(-19.99 -16.89)" fill="#1e4c82"/><path d="M68.47,40.77c0-.54.23-3.13-.67-1.93,0,.54-.23,3.13.67,1.93Z" transform="translate(-19.99 -16.89)" fill="#1e4c82"/><path d="M73.45,40.77c0-.54.23-3.13-.67-1.93,0,.54-.23,3.13.67,1.93Z" transform="translate(-19.99 -16.89)" fill="#1e4c82"/><path d="M78.43,40.77c0-.54.23-3.13-.67-1.93,0,.54-.23,3.13.67,1.93Z" transform="translate(-19.99 -16.89)" fill="#1e4c82"/><path d="M68.47,37.12c-.15-.61.49-5.25-.67-3.77.14.61-.48,5.28.67,3.77Z" transform="translate(-19.99 -16.89)" fill="#1e4c82"/><path d="M73.45,37.12c-.15-.61.49-5.25-.67-3.77.14.61-.48,5.28.67,3.77Z" transform="translate(-19.99 -16.89)" fill="#1e4c82"/><path d="M78.43,37.12c-.15-.61.49-5.25-.67-3.77.14.61-.48,5.28.67,3.77Z" transform="translate(-19.99 -16.89)" fill="#1e4c82"/><path d="M125.18,56a.34.34,0,0,0,.34-.34c.09-4.93.62-4.38-4.3-4.3-.83.93-.09,3-.33,4.3C121.82,56.5,123.87,55.76,125.18,56Zm-.34-.67h-3.3V52h3.3Z" transform="translate(-19.99 -16.89)" fill="#1e4c82"/><path d="M133.42,56a.34.34,0,0,0,.34-.34c.09-4.93.62-4.38-4.3-4.3-.83.93-.09,3-.33,4.3C130.06,56.5,132.12,55.76,133.42,56Zm-.33-.67h-3.3V52h3.3Z" transform="translate(-19.99 -16.89)" fill="#1e4c82"/><path d="M125.33,58.44c-1.3.24-3.37-.5-4.3.33.24,1.3-.5,3.37.33,4.3a36.56,36.56,0,0,0,4.2-.09.34.34,0,0,0,.11-.25C125.43,61.43,126.18,59.35,125.33,58.44Zm-.33,4h-3.3v-3.3H125Z" transform="translate(-19.99 -16.89)" fill="#1e4c82"/><path d="M133.91,58.77c-.93-.83-3-.09-4.3-.33-.55-.15-.54,4.76,0,4.63C134.79,63.05,133.9,64,133.91,58.77Zm-.67,3.64h-3.3v-3.3h3.3Z" transform="translate(-19.99 -16.89)" fill="#1e4c82"/><path d="M144.17,30c-.87.19-2.42-.44-2.93.33.19.87-.44,2.42.33,2.93a13.45,13.45,0,0,0,2.85-.11C144.46,32.38,144.88,30.5,144.17,30Zm-.33,2.6h-1.93V30.71h1.93Z" transform="translate(-19.99 -16.89)" fill="#1e4c82"/><path d="M148.27,30c-.87.19-2.42-.44-2.93.33.19.87-.44,2.42.33,2.93a13.45,13.45,0,0,0,2.85-.11C148.56,32.38,149,30.5,148.27,30Zm-.33,2.6H146V30.71h1.93Z" transform="translate(-19.99 -16.89)" fill="#1e4c82"/><path d="M144.17,34.13c-.87.19-2.42-.44-2.93.33.19.87-.44,2.42.33,2.93a13.45,13.45,0,0,0,2.85-.11C144.46,36.47,144.88,34.59,144.17,34.13Zm-.33,2.6h-1.93V34.8h1.93Z" transform="translate(-19.99 -16.89)" fill="#1e4c82"/><path d="M148.27,34.13c-.87.19-2.42-.44-2.93.33.19.87-.44,2.42.33,2.93a13.45,13.45,0,0,0,2.85-.11C148.56,36.47,149,34.59,148.27,34.13Zm-.33,2.6H146V34.8h1.93Z" transform="translate(-19.99 -16.89)" fill="#1e4c82"/><path d="M144.17,38.11c-.87.19-2.42-.44-2.93.33.19.87-.44,2.42.33,2.93a13.45,13.45,0,0,0,2.85-.11C144.46,40.45,144.88,38.57,144.17,38.11Zm-.33,2.6h-1.93V38.78h1.93Z" transform="translate(-19.99 -16.89)" fill="#1e4c82"/><path d="M148.27,38.11c-.87.19-2.42-.44-2.93.33.19.87-.44,2.42.33,2.93a13.45,13.45,0,0,0,2.85-.11C148.56,40.45,149,38.57,148.27,38.11Zm-.33,2.6H146V38.78h1.93Z" transform="translate(-19.99 -16.89)" fill="#1e4c82"/><path d="M144.17,42.2c-.87.19-2.42-.44-2.93.33.19.87-.44,2.42.33,2.93a13.45,13.45,0,0,0,2.85-.11C144.46,44.54,144.88,42.66,144.17,42.2Zm-.33,2.6h-1.93V42.87h1.93Z" transform="translate(-19.99 -16.89)" fill="#1e4c82"/><path d="M148.27,42.2c-.87.19-2.42-.44-2.93.33.19.87-.44,2.42.33,2.93a13.45,13.45,0,0,0,2.85-.11C148.56,44.54,149,42.66,148.27,42.2Zm-.33,2.6H146V42.87h1.93Z" transform="translate(-19.99 -16.89)" fill="#1e4c82"/><path d="M144.17,45.87c-.87.19-2.42-.44-2.93.33.19.87-.44,2.42.33,2.93a13.45,13.45,0,0,0,2.85-.11,15.61,15.61,0,0,0,.09-2.83A.36.36,0,0,0,144.17,45.87Zm-.33,2.6h-1.93V46.54h1.93Z" transform="translate(-19.99 -16.89)" fill="#1e4c82"/><path d="M148.27,45.87c-.87.19-2.42-.44-2.93.33.19.87-.44,2.42.33,2.93a13.45,13.45,0,0,0,2.85-.11,15.61,15.61,0,0,0,.09-2.83A.36.36,0,0,0,148.27,45.87Zm-.33,2.6H146V46.54h1.93Z" transform="translate(-19.99 -16.89)" fill="#1e4c82"/><path d="M144.17,50c-.87.19-2.42-.44-2.93.33.19.87-.44,2.42.33,2.93a13.45,13.45,0,0,0,2.85-.11C144.46,52.31,144.88,50.43,144.17,50Zm-.33,2.6h-1.93V50.64h1.93Z" transform="translate(-19.99 -16.89)" fill="#1e4c82"/><path d="M148.27,50c-.87.19-2.42-.44-2.93.33.19.87-.44,2.42.33,2.93a13.45,13.45,0,0,0,2.85-.11C148.56,52.31,149,50.43,148.27,50Zm-.33,2.6H146V50.64h1.93Z" transform="translate(-19.99 -16.89)" fill="#1e4c82"/><path d="M34.85,35.69c-.87.19-2.42-.44-2.93.33.19.87-.44,2.42.33,2.93a13.45,13.45,0,0,0,2.85-.11C35.14,38,35.56,36.15,34.85,35.69Zm-.34,2.6H32.58V36.36h1.93Z" transform="translate(-19.99 -16.89)" fill="#1e4c82"/><path d="M39,35.69c-.87.19-2.42-.44-2.93.33.19.87-.44,2.42.33,2.93a13.45,13.45,0,0,0,2.85-.11C39.24,38,39.66,36.15,39,35.69Zm-.34,2.6H36.68V36.36h1.93Z" transform="translate(-19.99 -16.89)" fill="#1e4c82"/><path d="M34.85,39.78c-.87.19-2.42-.44-2.93.33.19.87-.44,2.42.33,2.93a13.45,13.45,0,0,0,2.85-.11C35.14,42.12,35.56,40.24,34.85,39.78Zm-.34,2.6H32.58V40.45h1.93Z" transform="translate(-19.99 -16.89)" fill="#1e4c82"/><path d="M39,39.78c-.87.19-2.42-.44-2.93.33.19.87-.44,2.42.33,2.93a13.45,13.45,0,0,0,2.85-.11C39.24,42.12,39.66,40.24,39,39.78Zm-.34,2.6H36.68V40.45h1.93Z" transform="translate(-19.99 -16.89)" fill="#1e4c82"/><path d="M34.85,43.76c-.87.19-2.42-.44-2.93.33.19.87-.44,2.42.33,2.93a13.45,13.45,0,0,0,2.85-.11C35.14,46.1,35.56,44.22,34.85,43.76Zm-.34,2.6H32.58V44.43h1.93Z" transform="translate(-19.99 -16.89)" fill="#1e4c82"/><path d="M39,43.76c-.87.19-2.42-.44-2.93.33.19.87-.44,2.42.33,2.93a13.45,13.45,0,0,0,2.85-.11C39.24,46.1,39.66,44.22,39,43.76Zm-.34,2.6H36.68V44.43h1.93Z" transform="translate(-19.99 -16.89)" fill="#1e4c82"/><path d="M34.85,47.85c-.87.19-2.42-.44-2.93.33.19.87-.44,2.42.33,2.93A13.45,13.45,0,0,0,35.1,51C35.14,50.19,35.56,48.31,34.85,47.85Zm-.34,2.6H32.58V48.52h1.93Z" transform="translate(-19.99 -16.89)" fill="#1e4c82"/><path d="M39,47.85c-.87.19-2.42-.44-2.93.33.19.87-.44,2.42.33,2.93A13.45,13.45,0,0,0,39.2,51C39.24,50.19,39.66,48.31,39,47.85Zm-.34,2.6H36.68V48.52h1.93Z" transform="translate(-19.99 -16.89)" fill="#1e4c82"/><path d="M34.85,51.52c-.87.19-2.42-.44-2.93.33.19.87-.44,2.42.33,2.93a13.45,13.45,0,0,0,2.85-.11,15.61,15.61,0,0,0,.09-2.83A.36.36,0,0,0,34.85,51.52Zm-.34,2.6H32.58V52.19h1.93Z" transform="translate(-19.99 -16.89)" fill="#1e4c82"/><path d="M39,51.52c-.87.19-2.42-.44-2.93.33.19.87-.44,2.42.33,2.93a13.45,13.45,0,0,0,2.85-.11,15.61,15.61,0,0,0,.09-2.83A.36.36,0,0,0,39,51.52Zm-.34,2.6H36.68V52.19h1.93Z" transform="translate(-19.99 -16.89)" fill="#1e4c82"/><path d="M34.85,55.62c-.87.19-2.42-.44-2.93.33.19.87-.44,2.42.33,2.93a13.45,13.45,0,0,0,2.85-.11C35.14,58,35.56,56.08,34.85,55.62Zm-.34,2.59H32.58V56.28h1.93Z" transform="translate(-19.99 -16.89)" fill="#1e4c82"/><path d="M39,55.62c-.87.19-2.42-.44-2.93.33.19.87-.44,2.42.33,2.93a13.45,13.45,0,0,0,2.85-.11C39.24,58,39.66,56.08,39,55.62Zm-.34,2.59H36.68V56.28h1.93Z" transform="translate(-19.99 -16.89)" fill="#1e4c82"/><path d="M102.76,53.23c1.2-.32,12.84.77,11-.67C112.62,52.88,101,51.79,102.76,53.23Z" transform="translate(-19.99 -16.89)" fill="#1e4c82"/><path d="M102.76,67.82c1.2-.32,12.84.77,11-.67C112.62,67.47,101,66.38,102.76,67.82Z" transform="translate(-19.99 -16.89)" fill="#1e4c82"/><path d="M141.3,55.22c.9-.26,8.48.67,6.9-.67C147.31,54.81,139.72,53.88,141.3,55.22Z" transform="translate(-19.99 -16.89)" fill="#1e4c82"/><path d="M90.47,65c-.46-1-1.14-2.9-2.2-3a.23.23,0,0,0-.34,0c-1,.15-1.71,2.09-2.19,3-.85,1.7.29,4.27,2.21,4.29a.16.16,0,0,0,.11,0c-.47.46,0,1.56-.15,2.23.61,1.08.57-2.16.22-2.23a.2.2,0,0,0,.13-.06C90.16,69.24,91.32,66.7,90.47,65Zm-.3.51-1.84,1.84V65.17L89.52,64A6.57,6.57,0,0,1,90.17,65.5Zm-.89-1.91-1,1V62.32A8,8,0,0,1,89.28,63.59Zm-1.4-1.27v2.23l-1-1A8.81,8.81,0,0,1,87.88,62.32ZM86.69,64l1.19,1.19v2.17L86,65.5A7,7,0,0,1,86.69,64ZM86,67.06a2.6,2.6,0,0,1,0-1l1.95,2v1A3,3,0,0,1,86,67.06ZM90.25,67a2.94,2.94,0,0,1-1.93,2V68l2-2A2.76,2.76,0,0,1,90.25,67Z" transform="translate(-19.99 -16.89)" fill="#1e4c82"/><path d="M149.12,62.45c-.41-1.59,1.19-6.63-1.41-6.17-1.58.42-7.09-1.09-7,1.09V67.54c0,1,1,.88,1.71.88C149.37,68.19,149.43,70.18,149.12,62.45Zm-7.27,5.32c-.15,0-.46.07-.46-.15V57.52c-.21-1.19,2.06-.34,2.83-.58,1.35.13,3.05-.25,4.24.14C147.69,68.46,151.67,68,141.85,67.77Z" transform="translate(-19.99 -16.89)" fill="#1e4c82"/><path d="M103.41,54.19V66.12h0c1.46,1.8.34-10.63.67-11.93h0a.34.34,0,0,0-.67,0Z" transform="translate(-19.99 -16.89)" fill="#1e4c82"/><path d="M105.65,54.19V66.12h0c1.46,1.8.34-10.63.67-11.93h0a.34.34,0,0,0-.67,0Z" transform="translate(-19.99 -16.89)" fill="#1e4c82"/><path d="M107.89,54.19V66.12h0c1.46,1.8.34-10.63.67-11.93h0a.34.34,0,0,0-.67,0Z" transform="translate(-19.99 -16.89)" fill="#1e4c82"/><path d="M110.12,54.19V66.12h0c1.46,1.8.34-10.63.67-11.93h0a.34.34,0,0,0-.67,0Z" transform="translate(-19.99 -16.89)" fill="#1e4c82"/><path d="M112.36,54.19V66.12h0c1.46,1.8.34-10.63.67-11.93h0a.34.34,0,0,0-.67,0Z" transform="translate(-19.99 -16.89)" fill="#1e4c82"/><path d="M112.56,47.6c-9.74-3.53-10.65-8.49-10.13,2.71.14,1.7,7.43.39,9.15.78.76.07,1.64,0,1.48-1C112.92,49.32,113.46,48,112.56,47.6Zm-.18.63Zm-1.22,2.19h-8.07V44h0l9.3,4.23V50.4Z" transform="translate(-19.99 -16.89)" fill="#1e4c82"/><path d="M45.22,64.75c4.9-.09,9.89.17,14.75-.09a9.43,9.43,0,0,0,.11-2.39c-4.45-.94-10,0-14.85-.33C44.67,61.88,44.73,64.8,45.22,64.75Zm13.23-2.14h1v1.47H45.55V62.61Z" transform="translate(-19.99 -16.89)" fill="#1e4c82"/><path d="M60.16,65.84c-4.45-.94-10,0-14.85-.33-.56-.06-.5,2.87,0,2.8,4.9-.09,9.89.17,14.75-.09A9.84,9.84,0,0,0,60.16,65.84ZM46.6,67.65h-1V66.18H59.5v1.47Z" transform="translate(-19.99 -16.89)" fill="#1e4c82"/><path d="M71.11,59.37a.34.34,0,0,0,.34-.34c.09-4.93.62-4.38-4.3-4.3-.83.93-.09,3-.33,4.3C67.75,59.87,69.8,59.13,71.11,59.37Zm-.34-.67h-3.3V55.4h3.3Z" transform="translate(-19.99 -16.89)" fill="#1e4c82"/><path d="M79.35,59.37a.34.34,0,0,0,.34-.34c.09-4.93.62-4.38-4.3-4.3-.83.93-.09,3-.33,4.3C76,59.87,78.05,59.13,79.35,59.37ZM79,58.7h-3.3V55.4H79Z" transform="translate(-19.99 -16.89)" fill="#1e4c82"/><path d="M71.26,61.81c-1.3.24-3.37-.5-4.3.33.24,1.3-.5,3.37.33,4.3a36.56,36.56,0,0,0,4.2-.09.34.34,0,0,0,.11-.25C71.36,64.81,72.11,62.72,71.26,61.81Zm-.33,4h-3.3v-3.3h3.3Z" transform="translate(-19.99 -16.89)" fill="#1e4c82"/><path d="M79.51,61.81c-1.3.24-3.37-.5-4.3.33.24,1.3-.5,3.37.33,4.3a28.12,28.12,0,0,0,4.22-.11,34.43,34.43,0,0,0,.09-4.2A.35.35,0,0,0,79.51,61.81Zm-.33,4h-3.3v-3.3h3.3Z" transform="translate(-19.99 -16.89)" fill="#1e4c82"/><path d="M81,43.05H66.45c-.56-.06-.5,2.87,0,2.8,4.9-.09,9.89.17,14.75-.09a9.43,9.43,0,0,0,.11-2.39A.33.33,0,0,0,81,43.05ZM67.74,45.19h-1V43.72H80.64v1.47Z" transform="translate(-19.99 -16.89)" fill="#1e4c82"/><path d="M81,47.37H66.45c-.58-.11-.52,4.47,0,4.37,4.9-.09,9.89.17,14.75-.09a24.73,24.73,0,0,0,.11-4A.33.33,0,0,0,81,47.37Zm-13.23,3.7h-1V48H80.64v3Z" transform="translate(-19.99 -16.89)" fill="#1e4c82"/><path d="M88.75,19c-.82.18-2.32-.42-2.78.33V32.63c-.24,3.11.26,2.59,3,2.36C88.93,29.86,89.63,23.76,88.75,19Zm-2.11.66h1.78V34.44H86.64Z" transform="translate(-19.99 -16.89)" fill="#1e4c82"/><path d="M93.19,19c-.82.18-2.32-.42-2.78.33V34.77c-.22.53,3.36.51,3.12,0C93.21,29.64,94.16,23.72,93.19,19Zm-2.12.66h1.78V34.44H91.07Z" transform="translate(-19.99 -16.89)" fill="#1e4c82"/><path d="M97.62,19c-.82.18-2.32-.42-2.78.33V34.77c-.22.53,3.36.51,3.12,0C97.64,29.64,98.59,23.72,97.62,19Zm-2.12.66h1.78V34.44H95.5Z" transform="translate(-19.99 -16.89)" fill="#1e4c82"/><path d="M88.75,36.84c-3.9-.41-2.57.77-2.78,3.77a.33.33,0,0,0,.33.33,13.29,13.29,0,0,0,2.69-.1,23.65,23.65,0,0,0,.1-3.68A.33.33,0,0,0,88.75,36.84Zm-.33,3.44H86.64V37.5h1.78Z" transform="translate(-19.99 -16.89)" fill="#1e4c82"/><path d="M93.19,36.84c-3.9-.41-2.57.77-2.78,3.77a.33.33,0,0,0,.33.33,13.29,13.29,0,0,0,2.69-.1,23.65,23.65,0,0,0,.1-3.68A.35.35,0,0,0,93.19,36.84Zm-.34,3.44H91.07V37.5h1.78Z" transform="translate(-19.99 -16.89)" fill="#1e4c82"/><path d="M97.62,36.84c-3.9-.41-2.57.77-2.78,3.77a.33.33,0,0,0,.33.33,13.29,13.29,0,0,0,2.69-.1,23.65,23.65,0,0,0,.1-3.68A.35.35,0,0,0,97.62,36.84Zm-.34,3.44H95.5V37.5h1.78Z" transform="translate(-19.99 -16.89)" fill="#1e4c82"/><path d="M88.75,42.24C84.85,41.83,86.18,43,86,46a.33.33,0,0,0,.33.33,13.29,13.29,0,0,0,2.69-.1,23.65,23.65,0,0,0,.1-3.68A.33.33,0,0,0,88.75,42.24Zm-.33,3.45H86.64V42.91h1.78Z" transform="translate(-19.99 -16.89)" fill="#1e4c82"/><path d="M93.19,42.24c-3.9-.41-2.57.77-2.78,3.77a.33.33,0,0,0,.33.33,13.29,13.29,0,0,0,2.69-.1,23.65,23.65,0,0,0,.1-3.68A.35.35,0,0,0,93.19,42.24Zm-.34,3.45H91.07V42.91h1.78Z" transform="translate(-19.99 -16.89)" fill="#1e4c82"/><path d="M97.62,42.24c-3.9-.41-2.57.77-2.78,3.77a.33.33,0,0,0,.33.33,13.29,13.29,0,0,0,2.69-.1,23.65,23.65,0,0,0,.1-3.68A.35.35,0,0,0,97.62,42.24Zm-.34,3.45H95.5V42.91h1.78Z" transform="translate(-19.99 -16.89)" fill="#1e4c82"/><path d="M88.75,47.43c-3.9-.41-2.57.77-2.78,3.77a.33.33,0,0,0,.33.33,13.29,13.29,0,0,0,2.69-.1,23.65,23.65,0,0,0,.1-3.68A.33.33,0,0,0,88.75,47.43Zm-.33,3.44H86.64V48.09h1.78Z" transform="translate(-19.99 -16.89)" fill="#1e4c82"/><path d="M93.19,47.43c-3.9-.41-2.57.77-2.78,3.77a.33.33,0,0,0,.33.33,13.29,13.29,0,0,0,2.69-.1,23.65,23.65,0,0,0,.1-3.68A.35.35,0,0,0,93.19,47.43Zm-.34,3.44H91.07V48.09h1.78Z" transform="translate(-19.99 -16.89)" fill="#1e4c82"/><path d="M97.62,47.43c-3.9-.41-2.57.77-2.78,3.77a.33.33,0,0,0,.33.33,13.29,13.29,0,0,0,2.69-.1,23.65,23.65,0,0,0,.1-3.68A.35.35,0,0,0,97.62,47.43Zm-.34,3.44H95.5V48.09h1.78Z" transform="translate(-19.99 -16.89)" fill="#1e4c82"/><path d="M86.24,53.7c1.26-.33,13.05.79,11.32-.67C96.31,53.36,84.51,52.24,86.24,53.7Z" transform="translate(-19.99 -16.89)" fill="#1e4c82"/><path d="M86.24,56.12c1.26-.33,13.05.79,11.32-.67C96.31,55.78,84.51,54.66,86.24,56.12Z" transform="translate(-19.99 -16.89)" fill="#1e4c82"/><path d="M86.24,58.53c1.26-.33,13.05.79,11.32-.67C96.31,58.19,84.51,57.08,86.24,58.53Z" transform="translate(-19.99 -16.89)" fill="#1e4c82"/><path d="M86.24,61c1.26-.33,13.05.79,11.32-.67C96.31,60.61,84.51,59.49,86.24,61Z" transform="translate(-19.99 -16.89)" fill="#1e4c82"/><path d="M92.09,63.23c.77-.22,7.06.61,5.51-.67C96.84,62.78,90.54,62,92.09,63.23Z" transform="translate(-19.99 -16.89)" fill="#1e4c82"/><path d="M92.09,65.64c.77-.22,7.06.61,5.51-.67C96.84,65.19,90.54,64.36,92.09,65.64Z" transform="translate(-19.99 -16.89)" fill="#1e4c82"/><path d="M118.91,67.71c1.29-.33,14.71.79,12.77-.67C130.4,67.37,117,66.26,118.91,67.71Z" transform="translate(-19.99 -16.89)" fill="#1e4c82"/><path d="M137.08,65.8c-.48-1-1.23-3.14-2.33-3.24a.24.24,0,0,0-.36,0c-1.09.13-1.79,2.19-2.3,3.17-.92,1.8.28,4.57,2.31,4.58a.23.23,0,0,0,.34,0C136.74,70.3,138,67.58,137.08,65.8Zm-.31.51-2,2V66l1.28-1.28A7.19,7.19,0,0,1,136.77,66.31Zm-.94-2-1.05,1V62.89A9,9,0,0,1,135.83,64.28Zm-1.49-1.4v2.44l-1.05-1A9.74,9.74,0,0,1,134.34,62.88Zm-1.28,1.78,1.28,1.28v2.34l-2-2A7.17,7.17,0,0,1,133.06,64.66Zm-.77,3.28a3,3,0,0,1,0-1.12l2.09,2.09V70A3.18,3.18,0,0,1,132.29,67.94Zm4.57-.07A3.15,3.15,0,0,1,134.78,70V68.92l2.09-2.09A2.8,2.8,0,0,1,136.86,67.87Z" transform="translate(-19.99 -16.89)" fill="#1e4c82"/><path d="M134.32,70.61c.1.43-.24,3,.49,2.15C134.71,72.33,135.05,69.71,134.32,70.61Z" transform="translate(-19.99 -16.89)" fill="#1e4c82"/></g></g><g clip-path="url(#clip-path)"><g style="isolation:isolate"><path d="M203.38,30.06c-6.46.31-13.68-.61-19.77.33V68.8c.09.45-.27,1.32.33,1.45,6.54-.1,13.19.19,19.68-.1C203.57,57,204.27,42.9,203.38,30.06ZM190.51,69.59h-6.24V30.73H203V69.59Z" transform="translate(-19.99 -16.89)" fill="#1e4c82"/><path d="M182.58,50.81c-6.46.32-13.68-.62-19.77.33.32,6.27-.61,13.32.33,19.23,6.54-.11,13.21.21,19.69-.11C182.76,64,183.47,56.75,182.58,50.81Zm-12.86,18.9h-6.24V51.48h18.77V69.71Z" transform="translate(-19.99 -16.89)" fill="#1e4c82"/><path d="M219.89,17c-5,.31-10.84-.61-15.51.33V68.51c.12.55-.32,1.58.33,1.78,5-.32,10.87.62,15.52-.34C219.89,52.43,220.88,34.14,219.89,17ZM206.57,69.63H205v-52h14.51v52Z" transform="translate(-19.99 -16.89)" fill="#1e4c82"/><path d="M270.86,27.23c-3.74.3-8.26-.59-11.63.33V69.92c3.38.92,7.89,0,11.63.33a.34.34,0,0,0,.34-.34C270.86,55.82,271.85,40.94,270.86,27.23ZM259.9,45V27.89h10.63v41.7H259.9Z" transform="translate(-19.99 -16.89)" fill="#1e4c82"/><path d="M271.29,20.86c.15-.57-5.63-.54-5.48,0,.27,1.8-.54,4.4.33,5.83C273.21,26.82,271,27.27,271.29,20.86ZM270.62,26h-4.16V21.19h4.16Z" transform="translate(-19.99 -16.89)" fill="#1e4c82"/><path d="M161.84,32.62c-3.74.3-8.26-.59-11.63.33V69.8c0,.23.06.5.33.5,3.49-.31,8.67.61,11.64-.34C161.84,57.66,162.83,44.55,161.84,32.62Zm-11,37V33.3h10.63V69.64Z" transform="translate(-19.99 -16.89)" fill="#1e4c82"/><path d="M258.45,47.13H236.7c-5.09-2.77-10.21-5.45-15.31-8.2a.34.34,0,0,0-.5.29V69.91c12.09.87,25.38.18,37.78.24C258.67,62.69,259.29,54.28,258.45,47.13ZM223.19,69.59h-1.63V39.78l14.56,7.78v22Zm23,0h-9.36V47.81h21.31V69.59Z" transform="translate(-19.99 -16.89)" fill="#1e4c82"/><path d="M165.49,60.92c1.51-.36,16.41.83,14.55-.67C178.54,60.61,163.63,59.42,165.49,60.92Z" transform="translate(-19.99 -16.89)" fill="#1e4c82"/><path d="M152.71,60.92c.84-.24,8.83.65,7.12-.67C159,60.49,151,59.6,152.71,60.92Z" transform="translate(-19.99 -16.89)" fill="#1e4c82"/><path d="M168,58.69c-.19-.7.57-6.66-.67-5.08.19.7-.57,6.66.67,5.08Z" transform="translate(-19.99 -16.89)" fill="#1e4c82"/><path d="M173,58.69c-.19-.7.57-6.66-.67-5.08.19.7-.57,6.66.67,5.08Z" transform="translate(-19.99 -16.89)" fill="#1e4c82"/><path d="M177.94,58.69c-.19-.7.57-6.66-.67-5.08.19.7-.57,6.66.67,5.08Z" transform="translate(-19.99 -16.89)" fill="#1e4c82"/><path d="M153.82,67.58c-.19-.7.57-6.66-.67-5.08.19.7-.57,6.66.67,5.08Z" transform="translate(-19.99 -16.89)" fill="#1e4c82"/><path d="M156.37,67.58c-.19-.7.57-6.66-.67-5.08.19.7-.57,6.66.67,5.08Z" transform="translate(-19.99 -16.89)" fill="#1e4c82"/><path d="M158.93,67.58c-.19-.7.57-6.66-.67-5.08.19.7-.57,6.66.67,5.08Z" transform="translate(-19.99 -16.89)" fill="#1e4c82"/><path d="M188.77,40.77c0-.54.23-3.13-.67-1.93,0,.54-.23,3.13.67,1.93Z" transform="translate(-19.99 -16.89)" fill="#1e4c82"/><path d="M193.75,40.77c0-.54.23-3.13-.67-1.93,0,.54-.23,3.13.67,1.93Z" transform="translate(-19.99 -16.89)" fill="#1e4c82"/><path d="M198.73,40.77c0-.54.23-3.13-.67-1.93,0,.54-.23,3.13.67,1.93Z" transform="translate(-19.99 -16.89)" fill="#1e4c82"/><path d="M188.77,37.12c-.15-.61.49-5.25-.67-3.77.14.61-.48,5.28.67,3.77Z" transform="translate(-19.99 -16.89)" fill="#1e4c82"/><path d="M193.75,37.12c-.15-.61.49-5.25-.67-3.77.14.61-.48,5.28.67,3.77Z" transform="translate(-19.99 -16.89)" fill="#1e4c82"/><path d="M198.73,37.12c-.15-.61.49-5.25-.67-3.77.14.61-.48,5.28.67,3.77Z" transform="translate(-19.99 -16.89)" fill="#1e4c82"/><path d="M245.47,56a.34.34,0,0,0,.34-.34c.09-4.93.62-4.38-4.3-4.3-.83.93-.09,3-.33,4.3C242.11,56.5,244.17,55.76,245.47,56Zm-.33-.67h-3.3V52h3.3Z" transform="translate(-19.99 -16.89)" fill="#1e4c82"/><path d="M253.72,56a.34.34,0,0,0,.34-.34c.09-4.93.62-4.38-4.3-4.3-.83.93-.09,3-.33,4.3C250.36,56.5,252.41,55.76,253.72,56Zm-.34-.67h-3.3V52h3.3Z" transform="translate(-19.99 -16.89)" fill="#1e4c82"/><path d="M245.63,58.44c-1.3.24-3.37-.5-4.3.33.24,1.3-.5,3.37.33,4.3a28.12,28.12,0,0,0,4.22-.11,34.43,34.43,0,0,0,.09-4.2A.35.35,0,0,0,245.63,58.44Zm-.34,4H242v-3.3h3.3Z" transform="translate(-19.99 -16.89)" fill="#1e4c82"/><path d="M254.21,58.77c-.93-.83-3-.09-4.3-.33-.55-.15-.54,4.76,0,4.63C255.09,63.05,254.2,64,254.21,58.77Zm-.67,3.64h-3.3v-3.3h3.3Z" transform="translate(-19.99 -16.89)" fill="#1e4c82"/><path d="M264.46,30c-.87.19-2.42-.44-2.93.33.19.87-.44,2.42.33,2.93a13.45,13.45,0,0,0,2.85-.11C264.76,32.44,265.16,30.41,264.46,30Zm-.33,2.6H262.2V30.71h1.93Z" transform="translate(-19.99 -16.89)" fill="#1e4c82"/><path d="M268.56,30c-.87.19-2.42-.44-2.93.33.19.87-.44,2.42.33,2.93a13.45,13.45,0,0,0,2.85-.11C268.86,32.44,269.26,30.41,268.56,30Zm-.33,2.6H266.3V30.71h1.93Z" transform="translate(-19.99 -16.89)" fill="#1e4c82"/><path d="M264.46,34.13c-.87.19-2.42-.44-2.93.33.19.87-.44,2.42.33,2.93a13.45,13.45,0,0,0,2.85-.11C264.76,36.53,265.16,34.5,264.46,34.13Zm-.33,2.6H262.2V34.8h1.93Z" transform="translate(-19.99 -16.89)" fill="#1e4c82"/><path d="M268.56,34.13c-.87.19-2.42-.44-2.93.33.19.87-.44,2.42.33,2.93a13.45,13.45,0,0,0,2.85-.11C268.86,36.53,269.26,34.5,268.56,34.13Zm-.33,2.6H266.3V34.8h1.93Z" transform="translate(-19.99 -16.89)" fill="#1e4c82"/><path d="M264.46,38.11c-.87.19-2.42-.44-2.93.33.19.87-.44,2.42.33,2.93a13.45,13.45,0,0,0,2.85-.11C264.76,40.51,265.16,38.48,264.46,38.11Zm-.33,2.6H262.2V38.78h1.93Z" transform="translate(-19.99 -16.89)" fill="#1e4c82"/><path d="M268.56,38.11c-.87.19-2.42-.44-2.93.33.19.87-.44,2.42.33,2.93a13.45,13.45,0,0,0,2.85-.11C268.86,40.51,269.26,38.48,268.56,38.11Zm-.33,2.6H266.3V38.78h1.93Z" transform="translate(-19.99 -16.89)" fill="#1e4c82"/><path d="M264.46,42.2c-.87.19-2.42-.44-2.93.33.19.87-.44,2.42.33,2.93a13.45,13.45,0,0,0,2.85-.11C264.76,44.6,265.16,42.57,264.46,42.2Zm-.33,2.6H262.2V42.87h1.93Z" transform="translate(-19.99 -16.89)" fill="#1e4c82"/><path d="M268.56,42.2c-.87.19-2.42-.44-2.93.33.19.87-.44,2.42.33,2.93a13.45,13.45,0,0,0,2.85-.11C268.86,44.6,269.26,42.57,268.56,42.2Zm-.33,2.6H266.3V42.87h1.93Z" transform="translate(-19.99 -16.89)" fill="#1e4c82"/><path d="M264.46,45.87c-.87.19-2.42-.44-2.93.33.19.87-.44,2.42.33,2.93a13.45,13.45,0,0,0,2.85-.11,15.61,15.61,0,0,0,.09-2.83A.34.34,0,0,0,264.46,45.87Zm-.33,2.6H262.2V46.54h1.93Z" transform="translate(-19.99 -16.89)" fill="#1e4c82"/><path d="M268.56,45.87c-.87.19-2.42-.44-2.93.33.19.87-.44,2.42.33,2.93a13.45,13.45,0,0,0,2.85-.11,15.61,15.61,0,0,0,.09-2.83A.35.35,0,0,0,268.56,45.87Zm-.33,2.6H266.3V46.54h1.93Z" transform="translate(-19.99 -16.89)" fill="#1e4c82"/><path d="M264.46,50c-.87.19-2.42-.44-2.93.33.19.87-.44,2.42.33,2.93a13.45,13.45,0,0,0,2.85-.11C264.76,52.37,265.16,50.34,264.46,50Zm-.33,2.6H262.2V50.64h1.93Z" transform="translate(-19.99 -16.89)" fill="#1e4c82"/><path d="M268.56,50c-.87.19-2.42-.44-2.93.33.19.87-.44,2.42.33,2.93a13.45,13.45,0,0,0,2.85-.11C268.86,52.37,269.26,50.34,268.56,50Zm-.33,2.6H266.3V50.64h1.93Z" transform="translate(-19.99 -16.89)" fill="#1e4c82"/><path d="M155.14,35.69c-.87.19-2.42-.44-2.93.33.19.87-.44,2.42.33,2.93a13.45,13.45,0,0,0,2.85-.11C155.44,38.09,155.84,36.06,155.14,35.69Zm-.33,2.6h-1.93V36.36h1.93Z" transform="translate(-19.99 -16.89)" fill="#1e4c82"/><path d="M159.24,35.69c-.87.19-2.42-.44-2.93.33.19.87-.44,2.42.33,2.93a13.45,13.45,0,0,0,2.85-.11C159.53,38,160,36.15,159.24,35.69Zm-.33,2.6H157V36.36h1.93Z" transform="translate(-19.99 -16.89)" fill="#1e4c82"/><path d="M155.14,39.78c-.87.19-2.42-.44-2.93.33.19.87-.44,2.42.33,2.93a13.45,13.45,0,0,0,2.85-.11C155.44,42.18,155.84,40.15,155.14,39.78Zm-.33,2.6h-1.93V40.45h1.93Z" transform="translate(-19.99 -16.89)" fill="#1e4c82"/><path d="M159.24,39.78c-.87.19-2.42-.44-2.93.33.19.87-.44,2.42.33,2.93a13.45,13.45,0,0,0,2.85-.11C159.53,42.12,160,40.24,159.24,39.78Zm-.33,2.6H157V40.45h1.93Z" transform="translate(-19.99 -16.89)" fill="#1e4c82"/><path d="M155.14,43.76c-.87.19-2.42-.44-2.93.33.19.87-.44,2.42.33,2.93a13.45,13.45,0,0,0,2.85-.11C155.44,46.16,155.84,44.13,155.14,43.76Zm-.33,2.6h-1.93V44.43h1.93Z" transform="translate(-19.99 -16.89)" fill="#1e4c82"/><path d="M159.24,43.76c-.87.19-2.42-.44-2.93.33.19.87-.44,2.42.33,2.93a13.45,13.45,0,0,0,2.85-.11C159.53,46.1,160,44.22,159.24,43.76Zm-.33,2.6H157V44.43h1.93Z" transform="translate(-19.99 -16.89)" fill="#1e4c82"/><path d="M155.14,47.85c-.87.19-2.42-.44-2.93.33.19.87-.44,2.42.33,2.93a13.45,13.45,0,0,0,2.85-.11C155.44,50.25,155.84,48.22,155.14,47.85Zm-.33,2.6h-1.93V48.52h1.93Z" transform="translate(-19.99 -16.89)" fill="#1e4c82"/><path d="M159.24,47.85c-.87.19-2.42-.44-2.93.33.19.87-.44,2.42.33,2.93a13.45,13.45,0,0,0,2.85-.11C159.53,50.19,160,48.31,159.24,47.85Zm-.33,2.6H157V48.52h1.93Z" transform="translate(-19.99 -16.89)" fill="#1e4c82"/><path d="M155.14,51.52c-.87.19-2.42-.44-2.93.33.19.87-.44,2.42.33,2.93a13.45,13.45,0,0,0,2.85-.11,15.61,15.61,0,0,0,.09-2.83A.35.35,0,0,0,155.14,51.52Zm-.33,2.6h-1.93V52.19h1.93Z" transform="translate(-19.99 -16.89)" fill="#1e4c82"/><path d="M159.24,51.52c-.87.19-2.42-.44-2.93.33.19.87-.44,2.42.33,2.93a13.45,13.45,0,0,0,2.85-.11,15.61,15.61,0,0,0,.09-2.83A.36.36,0,0,0,159.24,51.52Zm-.33,2.6H157V52.19h1.93Z" transform="translate(-19.99 -16.89)" fill="#1e4c82"/><path d="M155.14,55.62c-.87.19-2.42-.44-2.93.33.19.87-.44,2.42.33,2.93a13.45,13.45,0,0,0,2.85-.11C155.44,58,155.84,56,155.14,55.62Zm-.33,2.59h-1.93V56.28h1.93Z" transform="translate(-19.99 -16.89)" fill="#1e4c82"/><path d="M159.24,55.62c-.87.19-2.42-.44-2.93.33.19.87-.44,2.42.33,2.93a13.45,13.45,0,0,0,2.85-.11C159.53,58,160,56.08,159.24,55.62Zm-.33,2.59H157V56.28h1.93Z" transform="translate(-19.99 -16.89)" fill="#1e4c82"/><path d="M223.05,53.23c1.2-.32,12.84.77,11-.67C232.91,52.88,221.26,51.79,223.05,53.23Z" transform="translate(-19.99 -16.89)" fill="#1e4c82"/><path d="M223.05,67.82c1.2-.32,12.84.77,11-.67C232.91,67.47,221.25,66.38,223.05,67.82Z" transform="translate(-19.99 -16.89)" fill="#1e4c82"/><path d="M261.6,55.22c.9-.26,8.48.67,6.9-.67C267.61,54.81,260,53.88,261.6,55.22Z" transform="translate(-19.99 -16.89)" fill="#1e4c82"/><path d="M210.76,65c-.46-1-1.14-2.9-2.2-3a.23.23,0,0,0-.34,0c-1,.15-1.71,2.09-2.19,3-.85,1.7.29,4.27,2.21,4.29a.16.16,0,0,0,.11,0c-.47.46,0,1.56-.15,2.23.61,1.08.57-2.16.22-2.23a.2.2,0,0,0,.13-.06C210.44,69.24,211.62,66.69,210.76,65Zm-.3.51-1.84,1.84V65.17L209.81,64A6.57,6.57,0,0,1,210.46,65.5Zm-.88-1.91-1,1V62.32A9.4,9.4,0,0,1,209.58,63.59Zm-1.41-1.27v2.23l-1-1A8.81,8.81,0,0,1,208.17,62.32ZM207,64l1.19,1.19v2.17l-1.84-1.84A7.56,7.56,0,0,1,207,64Zm-.71,3.08a2.6,2.6,0,0,1,0-1l2,2v1A2.91,2.91,0,0,1,206.27,67.06Zm4.28-.08a2.94,2.94,0,0,1-1.93,2V68l1.95-2A3,3,0,0,1,210.55,67Z" transform="translate(-19.99 -16.89)" fill="#1e4c82"/><path d="M269.41,62.45c-.41-1.59,1.19-6.63-1.41-6.17-1.58.42-7.09-1.09-7,1.09V67.54c0,1,1,.88,1.71.88C269.66,68.19,269.72,70.18,269.41,62.45Zm-7.27,5.32c-.15,0-.46.07-.46-.15V57.52c-.21-1.19,2.06-.34,2.83-.58,1.35.13,3.05-.25,4.24.14C268,68.45,272,68,262.14,67.77Z" transform="translate(-19.99 -16.89)" fill="#1e4c82"/><path d="M223.71,54.19V66.12h0c1.46,1.8.34-10.63.67-11.93h0a.34.34,0,0,0-.67,0Z" transform="translate(-19.99 -16.89)" fill="#1e4c82"/><path d="M225.94,54.19V66.12h0c1.46,1.8.34-10.63.67-11.93h0a.34.34,0,0,0-.67,0Z" transform="translate(-19.99 -16.89)" fill="#1e4c82"/><path d="M228.18,54.19V66.12h0c1.46,1.8.34-10.63.67-11.93h0a.34.34,0,0,0-.67,0Z" transform="translate(-19.99 -16.89)" fill="#1e4c82"/><path d="M230.42,54.19V66.12h0c1.46,1.8.34-10.63.67-11.93h0a.34.34,0,0,0-.67,0Z" transform="translate(-19.99 -16.89)" fill="#1e4c82"/><path d="M232.65,54.19V66.12h0c1.46,1.8.34-10.63.67-11.93h0a.34.34,0,0,0-.67,0Z" transform="translate(-19.99 -16.89)" fill="#1e4c82"/><path d="M232.85,47.6c-9.74-3.53-10.65-8.49-10.13,2.71.14,1.7,7.43.39,9.15.78.76.07,1.64,0,1.48-1C233.21,49.32,233.75,48,232.85,47.6Zm-.17.63Zm-1.23,2.19h-8.07V44h0l9.3,4.23V50.4Z" transform="translate(-19.99 -16.89)" fill="#1e4c82"/><path d="M165.51,64.75c4.9-.09,9.89.17,14.75-.09a9.43,9.43,0,0,0,.11-2.39c-4.45-.94-10,0-14.85-.33C165,61.88,165,64.8,165.51,64.75Zm13.23-2.14h1v1.47H165.84V62.61Z" transform="translate(-19.99 -16.89)" fill="#1e4c82"/><path d="M180.46,65.84c-4.45-.94-10,0-14.85-.33-.56-.06-.5,2.87,0,2.8,4.9-.09,9.89.17,14.75-.09A9.84,9.84,0,0,0,180.46,65.84Zm-13.57,1.81h-1V66.18h13.86v1.47Z" transform="translate(-19.99 -16.89)" fill="#1e4c82"/><path d="M191.4,59.37a.34.34,0,0,0,.34-.34c.09-4.93.62-4.38-4.3-4.3-.83.93-.09,3-.33,4.3C188,59.87,190.1,59.13,191.4,59.37Zm-.33-.67h-3.3V55.4h3.3Z" transform="translate(-19.99 -16.89)" fill="#1e4c82"/><path d="M199.65,59.37A.34.34,0,0,0,200,59c.09-4.93.62-4.38-4.3-4.3-.83.93-.09,3-.33,4.3C196.29,59.87,198.34,59.13,199.65,59.37Zm-.34-.67H196V55.4h3.3Z" transform="translate(-19.99 -16.89)" fill="#1e4c82"/><path d="M191.56,61.81c-1.3.24-3.37-.5-4.3.33.24,1.3-.5,3.37.33,4.3a28.12,28.12,0,0,0,4.22-.11,34.43,34.43,0,0,0,.09-4.2A.35.35,0,0,0,191.56,61.81Zm-.34,4h-3.3v-3.3h3.3Z" transform="translate(-19.99 -16.89)" fill="#1e4c82"/><path d="M199.8,61.81c-1.3.24-3.37-.5-4.3.33.24,1.3-.5,3.37.33,4.3a36.56,36.56,0,0,0,4.2-.09.34.34,0,0,0,.11-.25C199.9,64.8,200.65,62.72,199.8,61.81Zm-.33,4h-3.3v-3.3h3.3Z" transform="translate(-19.99 -16.89)" fill="#1e4c82"/><path d="M201.27,43.05H186.75c-.56-.06-.5,2.87,0,2.8,4.9-.09,9.89.17,14.75-.09C201.62,45.17,201.91,43.29,201.27,43.05ZM188,45.19h-1V43.72h13.86v1.47Z" transform="translate(-19.99 -16.89)" fill="#1e4c82"/><path d="M201.27,47.37H186.75c-.58-.11-.52,4.47,0,4.37,4.9-.09,9.89.17,14.75-.09a24.73,24.73,0,0,0,.11-4A.35.35,0,0,0,201.27,47.37ZM188,51.07h-1V48h13.86v3Z" transform="translate(-19.99 -16.89)" fill="#1e4c82"/><path d="M209.05,19c-.82.18-2.32-.42-2.78.33V34.77c-.22.53,3.36.51,3.12,0C209.07,29.64,210,23.72,209.05,19Zm-2.12.66h1.78V34.44h-1.78Z" transform="translate(-19.99 -16.89)" fill="#1e4c82"/><path d="M213.48,19c-.82.18-2.32-.42-2.78.33V34.77c-.22.53,3.36.51,3.12,0C213.5,29.64,214.45,23.72,213.48,19Zm-2.12.66h1.78V34.44h-1.78Z" transform="translate(-19.99 -16.89)" fill="#1e4c82"/><path d="M217.91,19c-.82.18-2.32-.42-2.78.33V32.63c-.24,3.11.26,2.59,3,2.36C218.09,29.86,218.79,23.77,217.91,19Zm-2.12.66h1.78V34.44h-1.78Z" transform="translate(-19.99 -16.89)" fill="#1e4c82"/><path d="M209.05,36.84c-3.9-.41-2.57.77-2.78,3.77a.33.33,0,0,0,.33.33,13.29,13.29,0,0,0,2.69-.1,23.65,23.65,0,0,0,.1-3.68A.35.35,0,0,0,209.05,36.84Zm-.34,3.44h-1.78V37.5h1.78Z" transform="translate(-19.99 -16.89)" fill="#1e4c82"/><path d="M213.48,36.84c-3.9-.41-2.57.77-2.78,3.77a.33.33,0,0,0,.33.33,13.29,13.29,0,0,0,2.69-.1,23.65,23.65,0,0,0,.1-3.68A.35.35,0,0,0,213.48,36.84Zm-.33,3.44h-1.78V37.5h1.78Z" transform="translate(-19.99 -16.89)" fill="#1e4c82"/><path d="M217.91,36.84c-3.9-.41-2.57.77-2.78,3.77a.33.33,0,0,0,.33.33,13.29,13.29,0,0,0,2.69-.1,23.65,23.65,0,0,0,.1-3.68A.34.34,0,0,0,217.91,36.84Zm-.33,3.44H215.8V37.5h1.78Z" transform="translate(-19.99 -16.89)" fill="#1e4c82"/><path d="M209.05,42.24c-3.9-.41-2.57.77-2.78,3.77a.33.33,0,0,0,.33.33,13.29,13.29,0,0,0,2.69-.1,23.65,23.65,0,0,0,.1-3.68A.35.35,0,0,0,209.05,42.24Zm-.34,3.45h-1.78V42.91h1.78Z" transform="translate(-19.99 -16.89)" fill="#1e4c82"/><path d="M213.48,42.24c-3.9-.41-2.57.77-2.78,3.77a.33.33,0,0,0,.33.33,13.29,13.29,0,0,0,2.69-.1,23.65,23.65,0,0,0,.1-3.68A.35.35,0,0,0,213.48,42.24Zm-.33,3.45h-1.78V42.91h1.78Z" transform="translate(-19.99 -16.89)" fill="#1e4c82"/><path d="M217.91,42.24c-3.9-.41-2.57.77-2.78,3.77a.33.33,0,0,0,.33.33,13.29,13.29,0,0,0,2.69-.1,23.65,23.65,0,0,0,.1-3.68A.34.34,0,0,0,217.91,42.24Zm-.33,3.45H215.8V42.91h1.78Z" transform="translate(-19.99 -16.89)" fill="#1e4c82"/><path d="M209.05,47.43c-3.9-.41-2.57.77-2.78,3.77a.33.33,0,0,0,.33.33,13.29,13.29,0,0,0,2.69-.1,23.65,23.65,0,0,0,.1-3.68A.35.35,0,0,0,209.05,47.43Zm-.34,3.44h-1.78V48.09h1.78Z" transform="translate(-19.99 -16.89)" fill="#1e4c82"/><path d="M213.48,47.43c-3.9-.41-2.57.77-2.78,3.77a.33.33,0,0,0,.33.33,13.29,13.29,0,0,0,2.69-.1,23.65,23.65,0,0,0,.1-3.68A.35.35,0,0,0,213.48,47.43Zm-.33,3.44h-1.78V48.09h1.78Z" transform="translate(-19.99 -16.89)" fill="#1e4c82"/><path d="M217.91,47.43c-3.9-.41-2.57.77-2.78,3.77a.33.33,0,0,0,.33.33,13.29,13.29,0,0,0,2.69-.1,23.65,23.65,0,0,0,.1-3.68A.34.34,0,0,0,217.91,47.43Zm-.33,3.44H215.8V48.09h1.78Z" transform="translate(-19.99 -16.89)" fill="#1e4c82"/><path d="M206.54,53.7c1.26-.33,13.05.79,11.32-.67C216.61,53.36,204.81,52.24,206.54,53.7Z" transform="translate(-19.99 -16.89)" fill="#1e4c82"/><path d="M206.54,56.12c1.26-.33,13.05.79,11.32-.67C216.61,55.78,204.81,54.67,206.54,56.12Z" transform="translate(-19.99 -16.89)" fill="#1e4c82"/><path d="M206.54,58.53c1.26-.33,13.05.79,11.32-.67C216.61,58.19,204.81,57.08,206.54,58.53Z" transform="translate(-19.99 -16.89)" fill="#1e4c82"/><path d="M206.54,61c1.26-.33,13.05.79,11.32-.67C216.61,60.61,204.81,59.49,206.54,61Z" transform="translate(-19.99 -16.89)" fill="#1e4c82"/><path d="M212.38,63.23c.77-.22,7.06.61,5.51-.67C217.13,62.78,210.83,62,212.38,63.23Z" transform="translate(-19.99 -16.89)" fill="#1e4c82"/><path d="M212.38,65.64c.77-.22,7.06.61,5.51-.67C217.13,65.19,210.83,64.36,212.38,65.64Z" transform="translate(-19.99 -16.89)" fill="#1e4c82"/><path d="M239.21,67.71c1.29-.33,14.71.79,12.77-.67C250.7,67.37,237.26,66.26,239.21,67.71Z" transform="translate(-19.99 -16.89)" fill="#1e4c82"/><path d="M257.37,65.8c-.48-1-1.23-3.14-2.33-3.24a.24.24,0,0,0-.36,0c-1.09.13-1.79,2.19-2.3,3.17-.92,1.8.28,4.57,2.31,4.58a.23.23,0,0,0,.34,0C257,70.31,258.25,67.58,257.37,65.8Zm-.31.51-2,2V66l1.28-1.28A7.19,7.19,0,0,1,257.06,66.31Zm-.93-2-1,1V62.89A9,9,0,0,1,256.13,64.28Zm-1.5-1.4v2.44l-1-1A10.54,10.54,0,0,1,254.63,62.88Zm-1.28,1.78,1.28,1.28v2.34l-2-2A7.17,7.17,0,0,1,253.35,64.66Zm-.77,3.28a3,3,0,0,1,0-1.12l2.09,2.09V70A3.18,3.18,0,0,1,252.58,67.94Zm4.58-.07A3.15,3.15,0,0,1,255.08,70V68.92l2.09-2.09A3.3,3.3,0,0,1,257.16,67.87Z" transform="translate(-19.99 -16.89)" fill="#1e4c82"/><path d="M254.61,70.61c.1.43-.24,3,.49,2.15C255,72.33,255.34,69.72,254.61,70.61Z" transform="translate(-19.99 -16.89)" fill="#1e4c82"/></g></g></g></svg>