<svg id="Layer_1" data-name="Layer 1" xmlns="http://www.w3.org/2000/svg" viewBox="0 0 38.04 25.84"><line x1="18.85" y1="10.06" x2="18.85" y2="17.12" fill="none" stroke="#f5f1f0" stroke-miterlimit="10" stroke-width="0.5"/><path d="M33.15,2.8V.68H31V2.81H26.89a2.06,2.06,0,0,1-1.48-.62L23.85.59A1.94,1.94,0,0,0,22.45,0H15.59a1.94,1.94,0,0,0-1.4.59l-1.56,1.6a2.06,2.06,0,0,1-1.48.62H7.08V.68H4.89V2.81h-1v1L19,3.68l15.13.15v-1h-1Z" fill="#d1edf7"/><path d="M34.29,3.68H3.74s-.09.77,1,1.06a38,38,0,0,0,5.9,0,2,2,0,0,1,1.27.39,1.56,1.56,0,0,1,.62,1.25V8.26H25.49V6.41a1.58,1.58,0,0,1,.62-1.25,2,2,0,0,1,1.27-.39,38,38,0,0,0,5.9,0C34.38,4.44,34.29,3.68,34.29,3.68Z" fill="#f7fcfe"/><path d="M24.17,10.06a5.73,5.73,0,0,1,3.32,5.45h.77s.13-4.21-2.77-6.77Z" fill="#3b668e"/><path d="M13.47,10.06a5.73,5.73,0,0,0-3.32,5.45H9.38s-.13-4.21,2.77-6.77Z" fill="#3b668e"/><polygon points="18.94 8.51 12.15 8.5 12.15 8.74 13.47 10.06 18.85 10.06 19.12 10.06 24.17 10.06 25.49 8.74 25.49 8.5 18.94 8.51" fill="#f7fcfe"/><rect x="34.43" y="0.29" width="3.18" height="1.09" fill="#d1edf7"/><rect x="26.41" y="0.29" width="3.18" height="1.09" fill="#d1edf7"/><circle cx="18.85" cy="5.89" r="1.52" fill="none" stroke="#2b3032" stroke-miterlimit="10"/><line x1="19.19" y1="10.31" x2="23.61" y2="16.78" fill="none" stroke="#f5f1f0" stroke-miterlimit="10" stroke-width="0.5"/><line x1="18.64" y1="10.31" x2="14.21" y2="16.78" fill="none" stroke="#f5f1f0" stroke-miterlimit="10" stroke-width="0.5"/><rect x="16.42" y="16.57" width="8.85" height="9.11" fill="#d3c77d"/><rect x="12.68" y="16.57" width="3.74" height="9.11" fill="#baa877"/><rect x="14.08" y="16.78" width="0.94" height="9.06" fill="#f5f1f0"/><rect x="20.08" y="16.78" width="1.23" height="9.06" fill="#f5f1f0"/><rect x="26.06" y="0.68" width="11.98" height="0.38" fill="#f7fcfe"/><rect x="0.43" y="0.28" width="3.18" height="1.09" fill="#d1edf7"/><rect x="8.45" y="0.28" width="3.18" height="1.09" fill="#d1edf7"/><rect y="0.67" width="11.98" height="0.38" fill="#f7fcfe"/></svg>