<svg id="Layer_1" data-name="Layer 1" xmlns="http://www.w3.org/2000/svg" viewBox="0 0 38.31 54.88"><path d="M22,23.39c2,.72,3.94,1.36,5.84,2.18,6.81,2.94,9.92,9.43,8.32,17.23A14.85,14.85,0,0,1,21.68,54.88c-4.79.07-9.34-.64-13-4-1.16-1.07-2.14-2-3.9-2-1.36,0-2.43-1-3.26-2.12a8.78,8.78,0,0,1,.06-9.94A5,5,0,0,1,9.88,37a8.15,8.15,0,0,1,1.33,6.57,1.75,1.75,0,0,0,.59,1.82c3.79,3.66,10.78,4.45,15.26,1.67A8.12,8.12,0,0,0,31,39.33a7.33,7.33,0,0,0-4.47-6.69c-3.53-1.72-7.37-2.54-11-3.83-3.34-1.16-6.39-2.73-8.56-5.65L6.17,22c-1.56-1.29-1.7-3.2-1.92-4.94A15.52,15.52,0,0,1,7.06,5.68C9.71,2,13.49.5,17.81.09A17.33,17.33,0,0,1,30,3.29a3.43,3.43,0,0,0,2.13.5c1.64,0,3.23.27,4.07,2a9.66,9.66,0,0,1,2,5.19,6.71,6.71,0,0,1-2.54,6.84,5,5,0,0,1-6.38,0,7.4,7.4,0,0,1-2.9-6.32c.06-2.4-.37-3-2.66-3.74a12.53,12.53,0,0,0-9,.28,6.66,6.66,0,0,0-4.22,6.46c-.08,3,1.49,4.91,4.13,6.12,1.06.48,2.3.62,3.11,1.59A26.11,26.11,0,0,0,22,23.39Z"/></svg>